<svg width="56" height="56" xmlns="http://www.w3.org/2000/svg"><path d="M17 50.456A24.899 24.899 0 0 0 28 53c4.349 0 8.438-1.11 12-3.063V46.5C40 40.149 34.851 35 28.5 35S17 40.149 17 46.5v3.956zm-3-1.74V46.5C14 38.492 20.492 32 28.5 32S43 38.492 43 46.5v1.502C49.072 43.44 53 36.179 53 28 53 14.193 41.807 3 28 3S3 14.193 3 28c0 8.62 4.362 16.22 11 20.715zM28 56C12.536 56 0 43.464 0 28S12.536 0 28 0s28 12.536 28 28-12.536 28-28 28zm.5-27C22.701 29 18 24.299 18 18.5S22.701 8 28.5 8 39 12.701 39 18.5 34.299 29 28.5 29zm0-3a7.5 7.5 0 1 0 0-15 7.5 7.5 0 0 0 0 15z" fill="#FF6200"/></svg>